<?xml version="1.0" standalone="no"?><!DOCTYPE svg PUBLIC "-//W3C//DTD SVG 1.1//EN" "http://www.w3.org/Graphics/SVG/1.1/DTD/svg11.dtd"><svg t="1671353060266" class="icon" viewBox="0 0 1024 1024" version="1.1" xmlns="http://www.w3.org/2000/svg" p-id="3267" xmlns:xlink="http://www.w3.org/1999/xlink" width="200" height="200"><path d="M512 1024C230.4 1024 0 793.6 0 512S230.4 0 512 0s512 230.4 512 512-230.4 512-512 512z" fill="#92BE33" p-id="3268"></path><path d="M1024 512c0-33.736-3.392-66.704-9.696-98.664L655.2 212.88H372.824l0.32 0.016c-0.112-0.008-0.2-0.008-0.32-0.016-11.112-0.584-12.856 21.696-20.848 38.168-2.76 5.688 0 0-19.688 2.784-6.216 0.872-11.968-1.368-11.672 13.656 0.512 26.432 14.08 22.184 14.08 22.184l59.776 500.696 4.12 37.888 90.424 195.16c7.624 0.336 15.272 0.584 22.984 0.584 281.6 0 512-230.4 512-512zM373.344 212.904c1.824 0.096 7.472 0.392 0 0z" fill="#61872E" p-id="3269"></path><path d="M351.2 247.664l12.384-35.688H639.24l18.792 39.16H503.76" fill="#F4EDDD" p-id="3270"></path><path d="M658.032 257.8H503.76a6.658 6.658 0 0 1-6.656-6.664 6.65 6.65 0 0 1 6.656-6.656h143.688l-12.4-25.84H367.776l-7.728 16.112a6.644 6.644 0 0 1-8.88 3.12 6.654 6.654 0 0 1-3.12-8.88l9.544-19.888a6.654 6.654 0 0 1 6.008-3.784h275.648c2.56 0 4.896 1.464 6 3.784l18.792 39.152a6.65 6.65 0 0 1-0.368 6.432 6.676 6.676 0 0 1-5.64 3.112" fill="#474341" p-id="3271"></path><path d="M668.992 287.544l-46.984 532.12h-231.8l-56.384-532.12" fill="#DD9D00" p-id="3272"></path><path d="M622.008 826.328H390.216a6.66 6.66 0 0 1-6.624-5.968l-56.384-532.112a6.66 6.66 0 0 1 5.92-7.32c3.648-0.344 6.936 2.272 7.32 5.928L396.2 813.008h219.712l46.448-526.04a6.622 6.622 0 0 1 7.224-6.048 6.664 6.664 0 0 1 6.048 7.224L628.64 820.256a6.658 6.658 0 0 1-6.632 6.072" fill="#474341" p-id="3273"></path><path d="M350.272 410.104l301.88 3.52-18.224 237.28-256.32 4.704z" fill="#F3D8C2" p-id="3274"></path><path d="M680.536 285.592H322.288a8.844 8.844 0 0 1-8.824-8.816v-16.816a8.844 8.844 0 0 1 8.824-8.816h358.248a8.842 8.842 0 0 1 8.816 8.816v16.816a8.848 8.848 0 0 1-8.816 8.816" fill="#F4EDDD" p-id="3275"></path><path d="M672.128 292.248H330.696c-13.176 0-23.888-10.72-23.888-23.888s10.712-23.88 23.888-23.88h341.432c13.168 0 23.88 10.712 23.88 23.88s-10.712 23.888-23.88 23.888M330.696 257.8c-5.824 0-10.568 4.736-10.568 10.56s4.744 10.568 10.568 10.568h341.432a10.58 10.58 0 0 0 10.568-10.568 10.572 10.572 0 0 0-10.568-10.56H330.696zM654.896 417.112h-0.016l-166.208-0.584a4.652 4.652 0 0 1-4.64-4.68 4.66 4.66 0 0 1 4.664-4.64h0.016l166.216 0.584a4.652 4.652 0 0 1 4.64 4.68 4.676 4.676 0 0 1-4.672 4.64M398.048 415.808h-0.024l-51.688-0.256a4.66 4.66 0 0 1-4.64-4.688c0.016-2.568 2.04-4.296 4.688-4.632l51.688 0.256a4.66 4.66 0 0 1-0.024 9.32M371.616 659.704a4.662 4.662 0 0 1-0.024-9.32l264.48-1.384h0.024a4.662 4.662 0 0 1 0.024 9.32l-264.48 1.384h-0.024z" fill="#474341" p-id="3276"></path><path d="M421.528 652.04c-2.336 0-4.36-1.76-4.632-4.136l-8.616-76.352a4.676 4.676 0 0 1 4.112-5.16c2.6-0.232 4.872 1.56 5.16 4.112l8.616 76.352a4.672 4.672 0 0 1-4.112 5.16 5.964 5.964 0 0 1-0.528 0.024M468.512 652.04a4.654 4.654 0 0 1-4.632-4.216l-7.44-78.704a4.654 4.654 0 0 1 4.2-5.08c2.568-0.2 4.84 1.64 5.08 4.2l7.44 78.704a4.652 4.652 0 0 1-4.192 5.08c-0.16 0.008-0.304 0.016-0.456 0.016M504.536 658.304a4.664 4.664 0 0 1-4.664-4.616l-2.112-222.176a4.668 4.668 0 0 1 4.616-4.704h0.04a4.66 4.66 0 0 1 4.664 4.616L509.2 653.6a4.658 4.658 0 0 1-4.616 4.704h-0.048zM584.64 653.136a4.664 4.664 0 0 1-4.632-5.2l24.84-214.304a4.654 4.654 0 0 1 5.168-4.104 4.664 4.664 0 0 1 4.088 5.168l-24.84 214.312a4.654 4.654 0 0 1-4.624 4.128M544.344 636.456c-0.08 0-0.152 0-0.224-0.008a4.66 4.66 0 0 1-4.44-4.872l10.328-216.304c0.12-2.576 2.456-4.808 4.88-4.432a4.65 4.65 0 0 1 4.44 4.872L549 632.024a4.664 4.664 0 0 1-4.656 4.432M599.688 788.296h-40.512c-2.576 0-4.664-2.08-4.664-4.664s2.088-4.664 4.664-4.664h40.512c2.576 0 4.664 2.08 4.664 4.664s-2.088 4.664-4.664 4.664M544.816 788.296h-32.808c-2.576 0-4.664-2.08-4.664-4.664s2.088-4.664 4.664-4.664h32.808c2.576 0 4.664 2.08 4.664 4.664s-2.088 4.664-4.664 4.664M492.336 788.296h-85.288c-2.576 0-4.664-2.08-4.664-4.664s2.088-4.664 4.664-4.664h85.288a4.664 4.664 0 1 1 0 9.328" fill="#474341" p-id="3277"></path><path d="M459.952 546.36H405.84c-12.472 0-22.672-10.2-22.672-22.664v-87.008c0-12.464 48.56-60.256 48.56-60.256s50.896 47.792 50.896 60.256v87.008c-0.008 12.464-10.208 22.664-22.672 22.664" fill="#3AB394" p-id="3278"></path><path d="M459.944 553.024h-54.112c-16.168 0-29.328-13.168-29.328-29.328V436.68c0-13.768 35.344-50.04 50.536-65a6.68 6.68 0 0 1 9.232-0.112c19.792 18.584 52.992 51.76 52.992 65.112v87.008c0.008 16.168-13.144 29.336-29.32 29.336m-28.112-167.304c-20.488 20.664-41.272 44.912-42.016 51.08l0.008 86.888c0 8.832 7.184 16 16.016 16h54.112c8.832 0 16.008-7.176 16.008-16V436.68c-0.872-6.088-22.696-30.344-44.128-50.96" fill="#474341" p-id="3279"></path><path d="M432.888 440.6c-8.4 0-15.232-6.832-15.232-15.232 0-8.392 6.832-15.232 15.232-15.232s15.232 6.84 15.232 15.232c0 8.4-6.832 15.232-15.232 15.232m0-21.144a5.92 5.92 0 0 0-5.912 5.912 5.92 5.92 0 0 0 5.912 5.912c3.256 0 5.912-2.656 5.912-5.912s-2.656-5.912-5.912-5.912M431.712 377.96a4.66 4.66 0 0 1-4.664-4.664v-86.144a4.664 4.664 0 1 1 9.328 0v86.144a4.664 4.664 0 0 1-4.664 4.664" fill="#474341" p-id="3280"></path></svg>